<svg width="236" height="210" viewBox="0 0 236 210" fill="none" xmlns="http://www.w3.org/2000/svg">
<path fill-rule="evenodd" clip-rule="evenodd" d="M0 210L2.01072e-06 187C2.60638e-06 180.186 0.636418 157.027 1.85839 134.235C2.47152 122.799 3.24775 111.148 4.19804 101.493C4.67138 96.6842 5.21215 92.1171 5.83987 88.2007C6.36398 84.9306 7.24618 80.0345 8.98223 75.8433C14.0722 63.555 22.4642 46.6586 34.5614 34.5614C45.5187 23.6041 58.527 14.9123 72.8434 8.9822C87.1598 3.05217 102.504 -1.3547e-06 118 0C133.496 1.3547e-06 148.84 3.05216 163.157 8.98221C177.473 14.9123 190.481 23.6041 201.439 34.5614C213.536 46.6586 221.928 63.555 227.018 75.8434C228.754 80.0345 229.636 84.9307 230.16 88.2007C230.788 92.1171 231.329 96.6842 231.802 101.493C232.752 111.148 233.529 122.799 234.142 134.235C235.364 157.027 236 180.186 236 187V210H213L118 210L23 210H0ZM190 187H186.754L127.395 61.5804L116.97 39.5549L106.595 61.6033L47.5844 187H46L23 187C23 183.513 23.1919 174.881 23.5727 164C24.5545 135.948 26.7915 92.9497 30.2315 84.6451C35.0057 73.1191 42.0033 59.6464 50.8249 50.8249C59.6464 42.0033 70.1192 35.0056 81.6451 30.2314C93.171 25.4572 105.524 23 118 23C130.476 23 142.829 25.4572 154.355 30.2314C165.881 35.0056 176.354 42.0033 185.175 50.8249C193.997 59.6464 200.994 73.1192 205.769 84.6451C209.208 92.9498 211.446 135.948 212.427 164C212.808 174.881 213 183.513 213 187H190ZM143.212 148.765L161.308 187L118 187H73.0039L90.3445 150.151C91.6491 151.284 93.0808 152.344 94.649 153.307L101.757 141.734C99.6198 140.422 97.9068 138.799 96.5379 136.99L117.03 93.4451L136.867 135.359L136.698 135.256C135.174 137.761 133.102 140.015 130.302 141.734L137.41 153.307C139.602 151.96 141.528 150.425 143.212 148.765ZM116.029 158.79C113.513 158.79 111.124 158.62 108.857 158.29L110.814 144.851C112.392 145.081 114.126 145.21 116.029 145.21C117.933 145.21 119.666 145.081 121.245 144.851L123.201 158.29C120.935 158.62 118.545 158.79 116.029 158.79Z" fill="black"/>
</svg>
